<svg xmlns="http://www.w3.org/2000/svg" xmlns:xlink="http://www.w3.org/1999/xlink" width="375" viewBox="0 0 375 375" height="375" version="1.0"><defs><clipPath id="d"><path d="M 0 0 L 375 0 L 375 324.960938 L 0 324.960938 Z M 0 0"/></clipPath><clipPath id="c"><path d="M0 0H375V325H0z"/></clipPath><clipPath id="g"><path d="M 0 0.0390625 L 375 0.0390625 L 375 325 L 0 325 Z M 0 0.0390625"/></clipPath><clipPath id="f"><path d="M0 0H375V325H0z"/></clipPath><mask id="b"><g filter="url(#a)"><path fill-opacity=".318" d="M-37.5 -37.5H412.5V412.5H-37.5z"/></g></mask><mask id="e"><g filter="url(#a)"><path fill-opacity=".337" d="M-37.5 -37.5H412.5V412.5H-37.5z"/></g></mask><filter x="0%" y="0%" width="100%" xmlns:xlink="http://www.w3.org/1999/xlink" xlink:type="simple" xlink:actuate="onLoad" height="100%" id="a" xlink:show="other"><feColorMatrix values="0 0 0 0 1 0 0 0 0 1 0 0 0 0 1 0 0 0 1 0" color-interpolation-filters="sRGB"/></filter></defs><g mask="url(#b)"><g><g clip-path="url(#c)"><g clip-path="url(#d)"><path fill="#7ED957" d="M 0 324.75 L 187.5 0 L 375 324.75 Z M 0 324.75"/></g></g></g></g><g mask="url(#e)"><g><g clip-path="url(#f)" transform="translate(0 47)"><g clip-path="url(#g)"><path fill="#FF66C4" d="M 0 324.800781 L 187.5 0.0507812 L 375 324.800781 Z M 0 324.800781"/></g></g></g></g></svg>